<svg version="1.2" xmlns="http://www.w3.org/2000/svg" viewBox="0 0 500 500" width="500" height="500">
	<title>icon</title>
	<defs>
		<linearGradient id="g1" x1="314.3" y1="304" x2="314.3" y2="113.8" gradientUnits="userSpaceOnUse">
			<stop offset="0" stop-color="#ff8900"/>
			<stop offset=".7" stop-color="#ffe900"/>
			<stop offset="1" stop-color="#fff8ad"/>
		</linearGradient>
		<linearGradient id="g2" x1="227.2" y1="351.8" x2="227.2" y2="73.9" gradientUnits="userSpaceOnUse">
			<stop offset="0" stop-color="#c030db"/>
			<stop offset=".6" stop-color="#ff008a"/>
			<stop offset="1" stop-color="#ffa7d6"/>
		</linearGradient>
		<linearGradient id="g3" x1="-133.8" y1="411.6" x2="783.5" y2="411.6" gradientUnits="userSpaceOnUse">
			<stop offset="0" stop-color="#788bfc"/>
			<stop offset="0" stop-color="#788bfc"/>
			<stop offset="1" stop-color="#0e27bd"/>
		</linearGradient>
	</defs>
	<style>
		.s0 { fill: url(#g1);stroke: #450000;paint-order:stroke fill markers;stroke-linejoin: round;stroke-width: 22 } 
		.s1 { fill: url(#g2);stroke: #380949;paint-order:stroke fill markers;stroke-linejoin: round;stroke-width: 22 } 
		.s2 { fill: url(#g3);paint-order:stroke fill markers;stroke: #000b45;stroke-width: 10;stroke-linejoin: round; } 
	</style>
	<path id="Shape 2" fill-rule="evenodd" class="s0" d="m261.8 249.9c3.1-13.8 4.6-39.8 1.5-66.6-2.7-23.5-8.2-46.8-16.5-69.5 21.3 9.3 39.5 24.3 52.5 43.5 11.2 16.5 18.1 35.5 20.1 55.2 14.1-10.9 24.3-26.1 29.2-43.4 4.7-16.2 4.3-33.6-0.8-50 15.3 7.1 27.9 18.8 35.2 33.8 5.7 11.8 9.5 29.7 2 55.7-3 10.1-8.8 21.9-18.6 34.8-21.7 28.5-46 44-68.3 52.1-18.6 6.7-38.4 9.4-58.5 8.2 10.4-16.5 18-34.6 22.2-53.8z"/>
	<path id="Shape 2" fill-rule="evenodd" class="s1" d="m203.7 144.5c10 15.7 32.7 41.1 60.4 63.2 24.3 19.3 51 35.7 79.8 49.1-28.3 11.1-59.2 14-89 8.3-25.7-4.9-49.7-16.1-69.9-32.5-2.9 23.2 1.7 46.7 13.1 67.3 10.8 19.4 27.3 35.2 47.3 45.6-20.9 7.7-43.4 8.5-64 1.3-16.2-5.6-36.4-18.7-53.5-49.8-6.7-12.1-12.3-28.4-15.1-49.4-6.3-46.6 1.8-83.5 15.1-111.7 11-23.5 26.8-44.4 46.6-62 5.6 25.1 15.3 48.8 29.2 70.6z"/>
	<path id="Documentation" class="s2" aria-label="Documentation"  d="m45.5 426h-29.4v-39.9h27.1 0.7q6 0 8.7 2.6 2.8 2.6 2.8 7.7v19.8q0 1.2-0.3 2.5-0.4 1.4-1.2 2.5-1.8 2.6-3.7 3.7-1.9 1.1-4.7 1.1zm-17.5-29.5v19.1h15.4v-19.1zm36 27.8q-3.8-2.8-3.8-7.3v-11.3q0-3.6 2.2-6.1 1.5-1.6 3.4-2.4 1.9-0.7 4.6-0.7h14.8q2.8 0 4.7 1.5 2 1.5 2.7 3.1 0.8 1.6 0.8 4.2v11.3q0 2.4-0.4 3.7-0.4 1.3-1.4 2.5-1.3 1.8-3.1 2.5-1.7 0.7-4.7 0.7h-14.9q-2.7 0-4.9-1.7zm7.8-17.9v9.6h10v-9.6zm31 18.9l-1.1-0.6q-1.9-1.5-2.7-3.3-0.7-1.9-0.7-5.4v-11.4q0-2.5 1.6-4.6 2.6-3.5 6.8-3.5h18.3v9.9h-15.2v9.6h15.2v10h-17.5-2.6q-0.4 0-0.8-0.1-0.4-0.1-1.3-0.6zm27-7v-11.9h-2.4v-9.9h7.6q2.2 0 3.8 1.4 1.3 1.2 1.9 2.4 0.6 1.2 0.6 3l0.1 1v11.7h11.2v-19.5h11.6v29.5h-11.6v-4q-1.1 2.8-4.4 3.7-0.8 0.3-2.6 0.3h-8.4q-1.5 0-3.3-1-4.1-2.3-4.1-6.7zm50.7-11.9v19.6h-11.5v-29.5h11.5v3.3l0.5-0.8q1.9-2.5 6-2.5h5.4q1 0 2.4 0.6 1.3 0.6 2.7 1.9l0.5 0.6 0.4 0.4 0.4-0.5q1.1-1.6 2.5-2.3 1.5-0.7 3.7-0.7h7.2q2.5 0 4.4 2.1 1.3 1.5 1.6 4.1v1.2 12.1h2.4v10h-6.7q-2.7 0-4.8-2.2-2.4-2.3-2.4-6.3v-11.1h-7.6v19.6h-11v-19.6zm47 18.9l-1-0.6q-2-1.5-2.8-3.3-0.7-1.9-0.7-5.4v-11.4q0-2.5 1.6-4.6 2.6-3.5 6.9-3.5h18.3 0.9q3 0 5 2 1.8 1.8 1.8 4.5v10.4h-22.9v2.6h18v10h-20.3-2.6q-0.4 0-0.8-0.1-0.4-0.1-1.4-0.6zm7.1-18.9v2.6h11.4v-2.6zm39.3 0v19.6h-11.6v-29.5h11.6v3.9q0.8-1.8 3-3l0.9-0.4q1.5-0.5 3.7-0.5h8.3q1.2 0 3.2 1 3.8 2.2 3.8 6.7v11.8h2.4v10h-7.1q-3.5 0-5.6-3.1-0.6-0.8-1-2-0.2-1.2-0.2-2.8v-11.7zm27.7 12.3v-9.3h-2.4v-4.7h2.4v-18.6h11.5v18.6h11.5v4.7h-11.5v6.6h11.5v10h-15.1q-0.4-0.1-0.7-0.2-1-0.2-2.3-0.7-2.2-1-3.5-2.9l-0.5-0.9q-0.4-0.7-0.7-1.4-0.2-0.7-0.2-1.2zm28.5 4.7q-3.1-2.9-3.1-6.8v-10.6-1.2q0.5-3.8 3.3-6.2 2.4-2.1 5-2.1h9.2q1.9 0 2.9 0.4 1 0.3 2.1 1.6l0.5 0.4v-2.4h12.1v19.5h2.4v10h-8.5q-1.5 0-3.1-0.9-1-0.5-2.2-2l-0.4-0.5-0.3-0.4-0.2 0.4-0.4 0.5q-2 2.9-5.3 2.9h-7.4q-2 0-3.5-0.6-1.5-0.6-3.1-2zm8.5-17v9.6h11.9v-9.6zm28.3 12.3v-9.3h-2.3v-4.7h2.3v-18.6h11.6v18.6h11.5v4.7h-11.5v6.6h11.5v10h-15.1q-0.4-0.1-0.8-0.2-1-0.2-2.2-0.7-2.2-1-3.5-2.9l-0.5-0.9q-0.5-0.7-0.7-1.4-0.3-0.7-0.3-1.2zm37-32.6v6.8h-11.5v-6.8zm0 10.4v29.5h-11.6v-29.5zm8.6 27.8q-3.8-2.8-3.8-7.3v-11.3q0-3.6 2.2-6.1 1.5-1.6 3.3-2.4 1.9-0.7 4.7-0.7h14.7q2.9 0 4.8 1.5 2 1.5 2.7 3.1 0.8 1.6 0.8 4.2v11.3q0 2.4-0.4 3.7-0.4 1.3-1.4 2.5-1.4 1.8-3.1 2.5-1.7 0.7-4.7 0.7h-14.9q-2.7 0-4.9-1.7zm7.7-17.9v9.6h10.1v-9.6zm38 0v19.6h-11.6v-29.5h11.6v3.9q0.8-1.8 3.1-3l0.8-0.4q1.5-0.5 3.7-0.5h8.3q1.2 0 3.2 1 3.9 2.2 3.9 6.7v11.8h2.3v10h-7.1q-3.5 0-5.6-3.1-0.6-0.8-0.9-2-0.3-1.2-0.3-2.8v-11.7z"/>
</svg>